<svg width="120" height="33" viewBox="0 0 120 33" fill="none" xmlns="http://www.w3.org/2000/svg">
<g clip-path="url(#clip0_32_4)">
<path fill-rule="evenodd" clip-rule="evenodd" d="M8 4.71429C6.23269 4.71429 4.8 6.12139 4.8 7.85714V25.1429C4.8 26.8786 6.23269 28.2857 8 28.2857H25.6C27.3673 28.2857 28.8 26.8786 28.8 25.1429V7.85714C28.8 6.12139 27.3673 4.71429 25.6 4.71429H8ZM0 7.85714C0 3.51776 3.58172 0 8 0H25.6C30.0183 0 33.6 3.51776 33.6 7.85714V25.1429C33.6 29.4822 30.0183 33 25.6 33H8C3.58172 33 0 29.4822 0 25.1429V7.85714Z" fill="url(#paint0_angular_32_4)"/>
<path fill-rule="evenodd" clip-rule="evenodd" d="M36.897 1.4761C37.8343 2.39662 37.8343 3.88908 36.897 4.8096L18.897 22.4882C17.9963 23.3728 16.5489 23.4122 15.5997 22.5781L7.99967 15.8995C7.01186 15.0314 6.92757 13.5413 7.81139 12.5711C8.69522 11.601 10.2125 11.5182 11.2003 12.3862L17.1083 17.5779L33.5029 1.4761C34.4402 0.555575 35.9598 0.555575 36.897 1.4761Z" fill="#2FD588"/>
<path d="M54.1695 24.3572V12.7412H50.1599V10.0132H61.4943V12.7412H57.4847V24.3572H54.1695Z" fill="#30313A"/>
<path d="M67.6879 24.6212C66.986 24.6212 66.3065 24.4965 65.6495 24.2472C64.9924 23.9832 64.41 23.6092 63.9023 23.1252C63.4095 22.6412 63.0137 22.0472 62.7151 21.3432C62.4164 20.6245 62.2671 19.8105 62.2671 18.9012C62.2671 17.9918 62.4164 17.1852 62.7151 16.4812C63.0137 15.7625 63.4095 15.1612 63.9023 14.6772C64.41 14.1932 64.9924 13.8265 65.6495 13.5772C66.3065 13.3132 66.986 13.1812 67.6879 13.1812C68.3897 13.1812 69.0617 13.3132 69.7039 13.5772C70.3609 13.8265 70.9359 14.1932 71.4287 14.6772C71.9364 15.1612 72.3396 15.7625 72.6383 16.4812C72.9369 17.1852 73.0863 17.9918 73.0863 18.9012C73.0863 19.8105 72.9369 20.6245 72.6383 21.3432C72.3396 22.0472 71.9364 22.6412 71.4287 23.1252C70.9359 23.6092 70.3609 23.9832 69.7039 24.2472C69.0617 24.4965 68.3897 24.6212 67.6879 24.6212ZM67.6879 22.0032C68.3599 22.0032 68.8676 21.7245 69.2111 21.1672C69.5545 20.6098 69.7263 19.8545 69.7263 18.9012C69.7263 17.9478 69.5545 17.1925 69.2111 16.6352C68.8676 16.0778 68.3599 15.7992 67.6879 15.7992C67.0009 15.7992 66.4857 16.0778 66.1423 16.6352C65.8137 17.1925 65.6495 17.9478 65.6495 18.9012C65.6495 19.8545 65.8137 20.6098 66.1423 21.1672C66.4857 21.7245 67.0009 22.0032 67.6879 22.0032Z" fill="#30313A"/>
<path d="M76.7305 24.3572V10.0132H80.8521C81.9721 10.0132 82.9801 10.1525 83.8761 10.4312C84.7721 10.7098 85.5409 11.1425 86.1833 11.7292C86.8257 12.3012 87.3185 13.0345 87.6617 13.9292C88.0049 14.8238 88.1769 15.8872 88.1769 17.1192C88.1769 18.3512 88.0049 19.4218 87.6617 20.3312C87.3185 21.2405 86.8329 21.9958 86.2057 22.5972C85.5785 23.1838 84.8241 23.6238 83.9433 23.9172C83.0769 24.2105 82.1065 24.3572 81.0313 24.3572H76.7305ZM80.0233 21.7392H80.6505C81.2777 21.7392 81.8449 21.6585 82.3529 21.4972C82.8609 21.3358 83.2937 21.0792 83.6521 20.7272C84.0105 20.3605 84.2865 19.8838 84.4809 19.2972C84.6897 18.7105 84.7945 17.9845 84.7945 17.1192C84.7945 16.2685 84.6897 15.5572 84.4809 14.9852C84.2865 14.3985 84.0105 13.9365 83.6521 13.5992C83.2937 13.2472 82.8609 12.9978 82.3529 12.8512C81.8449 12.7045 81.2777 12.6312 80.6505 12.6312H80.0233V21.7392Z" fill="#30313A"/>
<path d="M96.5712 24.6212C95.8696 24.6212 95.1904 24.4965 94.5328 24.2472C93.876 23.9832 93.2936 23.6092 92.7856 23.1252C92.2928 22.6412 91.8976 22.0472 91.5984 21.3432C91.3 20.6245 91.1504 19.8105 91.1504 18.9012C91.1504 17.9918 91.3 17.1852 91.5984 16.4812C91.8976 15.7625 92.2928 15.1612 92.7856 14.6772C93.2936 14.1932 93.876 13.8265 94.5328 13.5772C95.1904 13.3132 95.8696 13.1812 96.5712 13.1812C97.2736 13.1812 97.9456 13.3132 98.5872 13.5772C99.2448 13.8265 99.8192 14.1932 100.312 14.6772C100.82 15.1612 101.223 15.7625 101.522 16.4812C101.821 17.1852 101.97 17.9918 101.97 18.9012C101.97 19.8105 101.821 20.6245 101.522 21.3432C101.223 22.0472 100.82 22.6412 100.312 23.1252C99.8192 23.6092 99.2448 23.9832 98.5872 24.2472C97.9456 24.4965 97.2736 24.6212 96.5712 24.6212ZM96.5712 22.0032C97.2432 22.0032 97.7512 21.7245 98.0944 21.1672C98.4384 20.6098 98.6096 19.8545 98.6096 18.9012C98.6096 17.9478 98.4384 17.1925 98.0944 16.6352C97.7512 16.0778 97.2432 15.7992 96.5712 15.7992C95.8848 15.7992 95.3696 16.0778 95.0256 16.6352C94.6976 17.1925 94.5328 17.9478 94.5328 18.9012C94.5328 19.8545 94.6976 20.6098 95.0256 21.1672C95.3696 21.7245 95.8848 22.0032 96.5712 22.0032Z" fill="#30313A"/>
<path d="M105.387 16.6131L104.67 15.2051C105.342 14.8678 105.842 14.4864 106.171 14.0611C106.514 13.6211 106.686 13.0711 106.686 12.4111C106.642 12.4258 106.574 12.4331 106.485 12.4331C106.007 12.4331 105.596 12.2938 105.253 12.0151C104.924 11.7218 104.76 11.3258 104.76 10.8271C104.76 10.2698 104.917 9.82982 105.23 9.50713C105.559 9.18444 105.977 9.02313 106.485 9.02313C107.172 9.02313 107.694 9.27244 108.053 9.77113C108.411 10.2698 108.59 10.9811 108.59 11.9051C108.59 12.9464 108.322 13.8631 107.784 14.6551C107.262 15.4471 106.462 16.0998 105.387 16.6131Z" fill="#30313A"/>
<path d="M114.854 24.6212C114.123 24.6212 113.369 24.4818 112.592 24.2032C111.83 23.9245 111.166 23.5578 110.598 23.1032L112.077 21.0792C112.585 21.4605 113.07 21.7465 113.533 21.9372C113.996 22.1278 114.466 22.2232 114.944 22.2232C115.437 22.2232 115.795 22.1425 116.019 21.9812C116.243 21.8198 116.355 21.5925 116.355 21.2992C116.355 21.1232 116.288 20.9692 116.154 20.8372C116.034 20.6905 115.862 20.5585 115.638 20.4412C115.43 20.3238 115.19 20.2212 114.922 20.1332C114.653 20.0305 114.377 19.9205 114.093 19.8032C113.75 19.6712 113.406 19.5172 113.062 19.3412C112.719 19.1652 112.406 18.9525 112.122 18.7032C111.838 18.4392 111.606 18.1385 111.427 17.8012C111.248 17.4492 111.158 17.0458 111.158 16.5912C111.158 16.0925 111.256 15.6305 111.45 15.2052C111.659 14.7798 111.95 14.4205 112.323 14.1272C112.697 13.8338 113.145 13.6065 113.667 13.4452C114.19 13.2692 114.773 13.1812 115.414 13.1812C116.266 13.1812 117.013 13.3278 117.654 13.6212C118.297 13.8998 118.857 14.2152 119.334 14.5672L117.856 16.5032C117.453 16.2098 117.058 15.9825 116.669 15.8212C116.281 15.6598 115.893 15.5792 115.504 15.5792C114.668 15.5792 114.25 15.8652 114.25 16.4372C114.25 16.6132 114.31 16.7672 114.429 16.8992C114.549 17.0165 114.706 17.1265 114.899 17.2292C115.109 17.3318 115.34 17.4345 115.594 17.5372C115.862 17.6252 116.139 17.7205 116.422 17.8232C116.781 17.9552 117.132 18.1092 117.475 18.2852C117.834 18.4465 118.155 18.6518 118.438 18.9012C118.738 19.1505 118.976 19.4585 119.155 19.8252C119.334 20.1772 119.424 20.6025 119.424 21.1012C119.424 21.5998 119.327 22.0618 119.133 22.4872C118.939 22.9125 118.648 23.2865 118.259 23.6092C117.871 23.9172 117.394 24.1665 116.826 24.3572C116.258 24.5332 115.602 24.6212 114.854 24.6212Z" fill="#30313A"/>
</g>
<defs>
<radialGradient id="paint0_angular_32_4" cx="0" cy="0" r="1" gradientUnits="userSpaceOnUse" gradientTransform="translate(20.4 17.2857) rotate(-43.1524) scale(24.1249 21.9098)">
<stop offset="0.0146684" stop-color="#2FD588"/>
<stop offset="1" stop-color="#2FD588" stop-opacity="0.1"/>
</radialGradient>
<clipPath id="clip0_32_4">
<rect width="120" height="33" fill="white"/>
</clipPath>
</defs>
</svg>
