<svg width="20" height="18" viewBox="0 0 20 18" fill="none" xmlns="http://www.w3.org/2000/svg">
<path d="M19.6803 8.22294L12.4576 1.00007C12.2514 0.793895 11.9766 0.680725 11.6836 0.680725C11.3903 0.680725 11.1157 0.794057 10.9095 1.00007L10.2537 1.656C10.0477 1.86185 9.93421 2.13681 9.93421 2.42998C9.93421 2.72298 10.0477 3.00721 10.2537 3.21306L14.4673 7.43595H1.08048C0.476906 7.43595 0 7.90847 0 8.5122V9.43951C0 10.0432 0.476906 10.5634 1.08048 10.5634H14.5151L10.2539 14.8099C10.0479 15.016 9.93437 15.2835 9.93437 15.5767C9.93437 15.8695 10.0479 16.1409 10.2539 16.3469L10.9096 17.0007C11.1158 17.2069 11.3905 17.3193 11.6838 17.3193C11.9768 17.3193 12.2516 17.2055 12.4578 16.9993L19.6805 9.77658C19.8871 9.56975 20.0008 9.29366 20 9.00016C20.0006 8.7057 19.8871 8.42944 19.6803 8.22294Z" fill="white"/>
</svg>
